<svg version="1.1" id="Layer_1" xmlns="http://www.w3.org/2000/svg" xmlns:xlink="http://www.w3.org/1999/xlink" x="0px" y="0px"
	 width="100%" viewBox="0 0 200 200" enable-background="new 0 0 200 200" xml:space="preserve">
<path fill="#FEFFFD" opacity="1.000000" stroke="none" 
	d="
M131.000000,201.000000 
	C87.333336,201.000000 44.166672,201.000000 1.000006,201.000000 
	C1.000004,134.333344 1.000004,67.666679 1.000002,1.000015 
	C67.666656,1.000010 134.333313,1.000010 200.999969,1.000005 
	C200.999985,67.666649 200.999985,134.333298 201.000000,200.999969 
	C177.833328,201.000000 154.666672,201.000000 131.000000,201.000000 
M78.909653,147.597931 
	C82.992989,151.753372 87.044914,155.940262 91.166588,160.057312 
	C98.402664,167.285309 104.069092,167.229172 111.215057,159.874939 
	C123.865311,146.856003 136.861237,134.146393 148.987518,120.655655 
	C155.475510,113.437637 161.737595,105.472176 165.871841,96.783096 
	C179.224960,68.718491 160.058670,40.260674 128.946426,40.823944 
	C118.110603,41.020126 109.004234,45.333927 100.923080,52.393730 
	C99.374695,51.174828 98.104904,50.132038 96.791367,49.147636 
	C73.895859,31.989119 40.473526,42.278786 33.658863,68.803749 
	C29.798723,83.828720 33.632061,97.464256 42.752365,109.764671 
	C46.070446,114.239723 51.417099,115.445969 55.404137,112.649986 
	C59.462574,109.803917 60.050468,104.606155 57.128574,99.731827 
	C55.085670,96.323845 52.876583,92.891228 51.591709,89.175682 
	C47.198818,76.472481 50.731190,66.327682 61.021320,60.852783 
	C71.088905,55.496284 83.345978,58.237419 90.578705,67.462898 
	C99.507561,78.851837 102.007378,78.839134 111.213898,67.358002 
	C118.964516,57.692482 132.668716,55.418396 143.156082,62.057476 
	C152.956177,68.261490 155.313919,78.529495 149.662186,90.574539 
	C148.886658,92.227394 148.168335,94.001053 147.006577,95.363144 
	C140.542282,102.942154 134.293961,110.751160 127.313255,117.832336 
	C118.579330,126.691963 109.207336,134.922577 100.041412,143.489563 
	C93.149208,136.680420 85.357109,128.983582 77.566597,121.285141 
	C73.185608,116.955925 68.117500,116.573830 64.384109,120.294907 
	C60.682159,123.984634 60.910873,129.218674 65.110565,133.578003 
	C69.498604,138.132828 73.994705,142.583542 78.909653,147.597931 
z"/>
<path fill="#598209" opacity="1.000000" stroke="none" 
	d="
M78.676605,147.338852 
	C73.994705,142.583542 69.498604,138.132828 65.110565,133.578003 
	C60.910873,129.218674 60.682159,123.984634 64.384109,120.294907 
	C68.117500,116.573830 73.185608,116.955925 77.566597,121.285141 
	C85.357109,128.983582 93.149208,136.680420 100.041412,143.489563 
	C109.207336,134.922577 118.579330,126.691963 127.313255,117.832336 
	C134.293961,110.751160 140.542282,102.942154 147.006577,95.363144 
	C148.168335,94.001053 148.886658,92.227394 149.662186,90.574539 
	C155.313919,78.529495 152.956177,68.261490 143.156082,62.057476 
	C132.668716,55.418396 118.964516,57.692482 111.213898,67.358002 
	C102.007378,78.839134 99.507561,78.851837 90.578705,67.462898 
	C83.345978,58.237419 71.088905,55.496284 61.021320,60.852783 
	C50.731190,66.327682 47.198818,76.472481 51.591709,89.175682 
	C52.876583,92.891228 55.085670,96.323845 57.128574,99.731827 
	C60.050468,104.606155 59.462574,109.803917 55.404137,112.649986 
	C51.417099,115.445969 46.070446,114.239723 42.752365,109.764671 
	C33.632061,97.464256 29.798723,83.828720 33.658863,68.803749 
	C40.473526,42.278786 73.895859,31.989119 96.791367,49.147636 
	C98.104904,50.132038 99.374695,51.174828 100.923080,52.393730 
	C109.004234,45.333927 118.110603,41.020126 128.946426,40.823944 
	C160.058670,40.260674 179.224960,68.718491 165.871841,96.783096 
	C161.737595,105.472176 155.475510,113.437637 148.987518,120.655655 
	C136.861237,134.146393 123.865311,146.856003 111.215057,159.874939 
	C104.069092,167.229172 98.402664,167.285309 91.166588,160.057312 
	C87.044914,155.940262 82.992989,151.753372 78.676605,147.338852 
z"/>
</svg>